# xmcd
#
# Track frame offsets:
#	150
#	11715
#	23368
#	37723
#	50553
#	68126
#	80297
#	93233
#	109103
#	118340
#	131688
#	144845
#	154524
#	164658
#
# Disc length: 2410 seconds
#
# Revision: 0
# Processed by: cddbd v1.5.2PL0 Copyright (c) Steve Scherf et al.
# Submitted via: EasyCDDAExtractor 12.0.0.1
#
DISCID=a909680e
DTITLE=Lynette Morgan - Insomnia blues
DYEAR=1900
DGENRE=
TTITLE0=Somebody licked the skillet
TTITLE1=Ride your train
TTITLE2=Insomnia blues
TTITLE3=Don't crowd my worried mind
TTITLE4=Moonlight serenade
TTITLE5=Barnyard  bounce
TTITLE6=Bartender
TTITLE7=No more blues
TTITLE8=Poor stranger
TTITLE9=Tahula (Like to hula)
TTITLE10=Lovesick fool)
TTITLE11=Saddle up and catch up
TTITLE12=Paranoia
TTITLE13=In the pines
EXTD=
EXTT0=
EXTT1=
EXTT2=
EXTT3=
EXTT4=
EXTT5=
EXTT6=
EXTT7=
EXTT8=
EXTT9=
EXTT10=
EXTT11=
EXTT12=
EXTT13=
PLAYORDER=
